<?xml version="1.0" encoding="utf-8"?>
<!-- Generator: Adobe Illustrator 18.0.0, SVG Export Plug-In . SVG Version: 6.00 Build 0)  -->
<!DOCTYPE svg PUBLIC "-//W3C//DTD SVG 1.1//EN" "http://www.w3.org/Graphics/SVG/1.1/DTD/svg11.dtd">
<svg version="1.1" id="Layer_1" xmlns="http://www.w3.org/2000/svg" xmlns:xlink="http://www.w3.org/1999/xlink" x="0px" y="0px"
	 viewBox="286 143 224 279" enable-background="new 286 143 224 279" xml:space="preserve">
<g>
	<path fill="#FFFFFF" d="M433.9,345.6c11.2-7.5,32.8-11.2,49.7-6.5c1,0.3,4.2,1.8,5.5,1.8c0-0.7,0-1,0-1.7c-1.3-0.9-4.8-1.7-6.2-2.1
		c-19.6-5.1-40.7,0.4-52.4,8.2c12-10.6,38.8-15.9,58.4-8.7v-91.4c-10.7-4.4-27.7-5.8-40.7-2.5c-6.3,1.6-10.9,3.7-16.4,7.2
		c-3.1,2-11.8,7.4-12.7,10.9c-0.7,2.9,0,7.6,0,11.7v83.4c13.6-10.6,42.4-19.2,66.3-11.9c1,0.3,2.8,1.3,3.6,1.2c0-0.5,0-1,0-1.6
		c-1.7-1.6-7.7-2.8-9.8-3.2C462.9,337.6,445.1,341.4,433.9,345.6 M421,261.7c0.6-2.5,4.8-5.2,7.7-7.4c3.2-2.4,6.3-4.2,9.4-5.7
		c13.3-6.4,33.7-7.9,48.9-2v87.7c-11.8-4-27.7-3.2-38.7,0.3c-11.5,3.6-20.7,10-27.3,16.6v-78.2C421,269.1,420.3,264.5,421,261.7"/>
	<path fill="#FFFFFF" d="M376.3,260.7c-0.4-1.5-3.7-4.2-5.7-6c-6.7-5.8-14.5-9.7-23.3-11.9c-13-3.4-30-1.9-40.7,2.5
		c0.2,30.4-0.3,61.4,0.2,91.4c19.6-7.4,47.5-1.6,58.4,9.2c-12-9.5-37.9-14.1-56.4-7.7c-0.6,0.2-1.5,0.3-2.1,0.8v1.5
		c1.9,0.2,3.8-1,5.8-1.5c16.7-4.5,35.7-0.3,47.2,5.7c0.8,0.4,2.6,1.3,1.7,1.2c-13.5-5.8-34.5-8.7-50.9-4c-1.1,0.3-3,0.5-3.8,1.5v1.5
		c1.1,0.1,2.2-0.5,3.3-0.8c22.1-6.8,49.3,0.6,63.3,9.9c0.9,0.6,1.8,1.3,3,1.7v-83.2C376.3,268.6,377.1,263.6,376.3,260.7"/>
	<path fill="#FFFFFF" d="M397.1,257.3c6.6-5.8,12.6-12,19.6-18.4c1.8-1.6,4.3-6.1,7.4-5.2c2.3,0.6,2.5,12.3,1.7,15.4
		c-0.4,1.8-3.3,3.8-5.2,5.7c-4,4-6.7,6.7-10.9,10.9c-1.3,1.3-4.8,4-5.2,5.7c-0.6,2.2,0,6,0,8.9v62.3c-5,0-9.5-0.4-14.6-0.2v-62.6
		c0-2.9,0.6-6.4,0-8.7c-0.5-2-3.5-4-5.2-5.7c-3.9-3.9-6.7-7-10.7-10.9c-1.6-1.6-4.8-3.9-5.2-5.5c-0.6-2.2-0.2-14.2,1-15.1
		c2.8-1.9,6.4,2.6,8.4,4.7C384.3,244.7,392,252,397.1,257.3"/>
	<path fill="#FFFFFF" d="M396.4,223.7c1.5-0.1,3.9,0,5.2,0.5c9.1,3.4,10.3,20-1.7,22.3c-6.3,1.2-14-2.9-14.2-11.2
		C385.6,228.3,390.1,224.3,396.4,223.7"/>
	<path fill="#FFFFFF" d="M433.6,215.5c2.7-1.2,6.4-3.5,9.2-5.5c-0.4,3.2-2.7,6.6-3.7,9.9c3.1,0.9,8.7-1.1,11.2,0.7
		c-1,4.2-3.8,5.9-6.5,7.7c-7.3,5.1-22.8,7.7-21.6-7.7c0.5-6,5-14.9,8.7-16.1C433.3,203.8,433.1,212.9,433.6,215.5"/>
	<path fill="#FFFFFF" d="M341,219.3c2.7-1.1,7.4-0.2,10.9-0.5c-0.7-3-2.9-6.6-4-9.9c3.3,1.7,6.2,3.7,9.4,5.5
		c1-3.3-0.3-11.1,2.7-10.9c2.7,0.1,5.3,5.5,6.2,7.2c4.6,8.8,3.6,22.7-9.4,20.6c-3.4-0.5-6.8-2.2-9.7-4.2
		C344.5,225,341.2,222.8,341,219.3"/>
	<path fill="#FFFFFF" d="M318.9,218.5c-2-3-5.6-5.7-7.2-8.2c3.5,0.7,7,1.2,10.4,2c0-3.2-2.4-7.3-2-10.9c2.8-1.4,7.6,2.8,10.2,5.5
		c3.2,3.3,6.6,7.6,6,13.4c-1,8.8-12.9,9.8-21.4,7c-1.8-0.6-6.5-2.3-6.2-4.5C309.1,220.2,317,219.8,318.9,218.5"/>
	<path fill="#FFFFFF" d="M474.1,200.9c-0.4,3.7-1.6,6.7-2.2,10.2c3.1,0.1,7.1-1,10.2-1.7c-1.2,2.9-4.9,5.3-7,8.2
		c3.2,1.5,7.6,1.9,10.2,4c0,2.8-3.1,3.4-5.2,4.2c-8.3,3.2-23.3,3.1-22.3-8.7c0.7-7.8,8.1-13.7,13.7-16.9
		C472.1,199.7,473.6,200.2,474.1,200.9"/>
	<path fill="#FFFFFF" d="M407.1,200.9c2.8-2,4.8-6.3,7.2-7.9c-0.1,3.6-0.4,6.9-0.5,10.4c3.2-0.3,6.8-3.6,10.7-3.2
		c0.6,4.7-2.1,8.2-4.7,11.2c-2.7,3.1-6.5,7.3-12.4,7.2c-7.8-0.2-10.3-9.9-9.7-17.4c0.2-2.4,1.4-9.8,4-9.7
		C404.2,191.6,405.5,199.3,407.1,200.9"/>
	<path fill="#FFFFFF" d="M367.3,200.1c4.1,0.6,6.8,2.5,10.4,3.5c-0.3-3.4-0.4-7-0.7-10.4c0.4-0.3,1.3,0.7,1.7,1.2
		c1.7,1.9,3.7,4.7,5.2,6.7c2.2-1.5,2.9-9.3,5.5-9.7c3.4-0.5,5,10.4,4.5,15.6c-0.6,5.9-4.7,13.1-12.4,11.2
		c-5.5-1.3-9.9-6.4-12.7-11.2C367.7,205.1,365.5,202.4,367.3,200.1"/>
	<path fill="#FFFFFF" d="M448,180.5c1.5,2.8,1.2,7.2,1.7,10.9c3.3-1.7,6.1-3.8,9.4-5.5c-1.2,3.4-2.7,6.4-4,9.7
		c3.4,1.3,9.1-1.4,11.2,1c-1.1,4-4.2,5.9-7.2,7.9c-4.4,2.9-13.3,6.3-18.1,1.5c-6.6-6.5-0.2-22,5.5-25.6
		C446.6,180.5,447.6,180.6,448,180.5"/>
	<path fill="#FFFFFF" d="M326.4,194.9c2.1-2.3,7.3-0.2,10.9-0.7c-0.7-2.9-2.9-6.6-4-9.9c3.4,1.6,6.3,3.6,9.4,5.5
		c1-3.1-0.6-10.6,2.2-11.2c2.2-0.5,4.8,4.4,6,6.5c4.3,7.8,5.7,22.9-7.9,21.6c-3.7-0.3-7.2-2.2-10.2-4.2
		C330.1,200.5,326.4,198.3,326.4,194.9"/>
	<path fill="#FFFFFF" d="M424,177.8c2.7-2.5,4.4-5.9,7.2-8.2c-0.5,3.3-0.2,7.4-0.7,10.7c3.7-0.9,6.9-3.4,10.7-3.5
		c0.8,4.7-2.1,8.7-4.7,11.7c-2.6,3-7.1,7.4-13.2,6.7c-6.2-0.7-9.4-8.2-8.9-15.9c0.2-3.4,1.7-11.9,4.5-10.9
		C421.5,169.3,422,175.7,424,177.8"/>
	<path fill="#FFFFFF" d="M352.4,176.6c3.7-0.1,6.8,2.4,10.4,3.2c0.2-2.8-0.5-6.8-0.5-10.2c0.5-0.5,1.3,0.7,1.7,1.2
		c1.6,1.8,3.5,4.6,5.2,6.5c2-1.6,3-9.6,5.7-9.7c2.4-0.1,4,7.2,4.2,10.9c0.6,7.6-2.5,17-11.2,16.1c-6.7-0.7-11.6-6.9-14.4-12.2
		C352.7,180.8,350.9,178.6,352.4,176.6"/>
	<path fill="#FFFFFF" d="M397.1,163.4c1.8,2.7,2.4,6.6,3.5,9.9c3.4-1.8,5.1-5.3,8.7-7c2.7,2.4,1.4,7.1,0.5,10.4
		c-1.6,5.8-5.6,14.2-13.4,13.4c-6.1-0.6-10.1-7.6-11.7-13.7c-0.8-3.2-1.8-7.8,0.7-10.2c3.4,1.8,5.5,4.9,8.4,7.2
		C395,170.2,396.1,166.9,397.1,163.4"/>
	<polygon fill="#FFFFFF" points="306.5,401.1 306.5,370.5 329.1,370.5 329.1,375.7 312.6,375.7 312.6,382.5 328,382.5 328,387.6 
		312.6,387.6 312.6,395.9 329.7,395.9 329.7,401.1 	"/>
	<polygon fill="#FFFFFF" points="334.7,401.1 334.7,370.5 340.6,370.5 340.6,386.7 347.4,378.9 354.6,378.9 347.1,387 355.2,401.1 
		348.8,401.1 343.3,391.1 340.6,394 340.6,401.1 	"/>
	<path fill="#FFFFFF" d="M357.3,389.7c0-2,0.5-3.8,1.4-5.7c1-1.8,2.3-3.2,4.1-4.2c1.8-1,3.7-1.4,5.9-1.4c3.3,0,6.1,1.1,8.2,3.3
		c2.1,2.2,3.2,4.9,3.2,8.3c0,3.4-1.1,6.1-3.2,8.3c-2.2,2.2-4.9,3.3-8.2,3.3c-2,0-4-0.5-5.8-1.4c-1.8-0.9-3.2-2.3-4.2-4
		C357.8,394.4,357.3,392.3,357.3,389.7 M363.3,390c0,2.2,0.5,3.9,1.6,5c1,1.2,2.3,1.8,3.9,1.8c1.5,0,2.8-0.6,3.8-1.8
		c1-1.2,1.6-2.9,1.6-5.1c0-2.2-0.5-3.8-1.6-5c-1-1.2-2.3-1.8-3.8-1.8c-1.5,0-2.8,0.6-3.9,1.8C363.9,386.1,363.3,387.8,363.3,390"/>
	<path fill="#FFFFFF" d="M382.7,394.8l5.9-0.9c0.3,1.1,0.8,2,1.5,2.6c0.8,0.6,1.8,0.9,3.2,0.9c1.5,0,2.6-0.3,3.4-0.8
		c0.5-0.4,0.8-0.9,0.8-1.6c0-0.4-0.1-0.8-0.4-1.1c-0.3-0.3-0.9-0.5-2-0.8c-4.7-1-7.7-2-9-2.9c-1.8-1.2-2.6-2.9-2.6-5
		c0-1.9,0.8-3.5,2.3-4.9c1.5-1.3,3.9-2,7.1-2c3,0,5.3,0.5,6.8,1.5c1.5,1,2.5,2.4,3.1,4.4l-5.5,1c-0.2-0.9-0.7-1.5-1.3-2
		c-0.7-0.5-1.6-0.7-2.8-0.7c-1.5,0-2.6,0.2-3.3,0.6c-0.4,0.3-0.7,0.7-0.7,1.2c0,0.4,0.2,0.8,0.6,1.1c0.5,0.4,2.4,0.9,5.5,1.7
		c3.1,0.7,5.3,1.6,6.5,2.6c1.2,1,1.8,2.5,1.8,4.4c0,2-0.8,3.8-2.5,5.2c-1.7,1.5-4.2,2.2-7.5,2.2c-3,0-5.4-0.6-7.2-1.8
		C384.4,398.6,383.2,396.9,382.7,394.8 M386.2,369.9h4.7l2.2,3.1l2.4-3.1h4.7l-4.3,6.2h-5.4L386.2,369.9z"/>
	<polygon fill="#FFFFFF" points="408.3,401.1 408.3,370.5 414.2,370.5 414.2,386.7 421,378.9 428.2,378.9 420.7,387 428.8,401.1 
		422.5,401.1 416.9,391.1 414.2,394 414.2,401.1 	"/>
	<path fill="#FFFFFF" d="M431,389.7c0-2,0.5-3.8,1.4-5.7c1-1.8,2.3-3.2,4.1-4.2c1.8-1,3.7-1.4,5.9-1.4c3.3,0,6.1,1.1,8.2,3.3
		c2.1,2.2,3.2,4.9,3.2,8.3c0,3.4-1.1,6.1-3.2,8.3c-2.2,2.2-4.9,3.3-8.2,3.3c-2,0-4-0.5-5.8-1.4c-1.8-0.9-3.2-2.3-4.2-4
		C431.4,394.4,431,392.3,431,389.7 M437,390c0,2.2,0.5,3.9,1.6,5c1,1.2,2.3,1.8,3.8,1.8c1.5,0,2.8-0.6,3.8-1.8
		c1-1.2,1.6-2.9,1.6-5.1c0-2.2-0.5-3.8-1.6-5c-1-1.2-2.3-1.8-3.8-1.8c-1.5,0-2.8,0.6-3.8,1.8C437.5,386.1,437,387.8,437,390"/>
	<rect x="458.4" y="370.5" fill="#FFFFFF" width="5.9" height="30.6"/>
	<path fill="#FFFFFF" d="M474.7,385.7l-5.3-1c0.6-2.1,1.6-3.7,3.1-4.7c1.5-1,3.6-1.5,6.5-1.5c2.6,0,4.6,0.3,5.8,0.9
		c1.3,0.6,2.2,1.4,2.7,2.4c0.5,1,0.8,2.7,0.8,5.2l-0.1,6.8c0,2,0.1,3.4,0.3,4.3c0.2,0.9,0.5,1.9,1,3h-5.8c-0.2-0.4-0.3-1-0.6-1.7
		c-0.1-0.4-0.2-0.6-0.2-0.7c-1,1-2.1,1.7-3.2,2.2c-1.1,0.5-2.4,0.7-3.6,0.7c-2.3,0-4.1-0.6-5.4-1.9c-1.3-1.2-2-2.8-2-4.7
		c0-1.3,0.3-2.4,0.9-3.4c0.6-1,1.4-1.7,2.5-2.3c1.1-0.5,2.6-1,4.7-1.4c2.7-0.5,4.6-1,5.7-1.4V386c0-1.1-0.3-1.9-0.8-2.4
		c-0.6-0.5-1.6-0.7-3.1-0.7c-1,0-1.9,0.2-2.4,0.6C475.5,383.9,475,384.7,474.7,385.7 M482.5,390.5c-0.8,0.2-1.9,0.5-3.6,0.9
		c-1.6,0.3-2.7,0.7-3.2,1c-0.8,0.5-1.1,1.2-1.1,2.1c0,0.8,0.3,1.5,0.9,2.1c0.6,0.6,1.4,0.9,2.3,0.9c1.1,0,2.1-0.3,3-1
		c0.7-0.5,1.2-1.2,1.4-1.9c0.2-0.5,0.2-1.5,0.2-2.9V390.5z"/>
</g>
</svg>
